<svg version="1.0" xmlns="http://www.w3.org/2000/svg" viewBox="0 0 340 150" preserveAspectRatio="xMidYMid meet"
     color-interpolation-filters="sRGB" style="margin: auto;">
    <g fill="#ef5b24" transform="translate(78,30)">
        <g>
            <svg filter="url(#colors350524036)" x="0" y="0" width="60" height="60"
                 filtersec="colorsf6288523337" style="overflow: visible;">
                <svg xmlns="http://www.w3.org/2000/svg"
                     viewBox="22.59000015258789 29.5 54.750003814697266 51.019996643066406" x="0px" y="0px">
                    <path d="M74,69.72a14.37,14.37,0,0,0,3.32-9.08c0-6.7-4.86-12.46-11.83-15a2.17,2.17,0,0,1,0,.26,16.67,16.67,0,0,1-.3,3.16c5.23,2.2,8.8,6.56,8.8,11.58,0,3.81-2.1,7.43-5.76,9.93a19.15,19.15,0,0,1-10.72,3.17c-6.89,0-12.8-3.38-15.26-8.16a27.15,27.15,0,0,1-3.72-.27C41,72.09,48.56,77,57.53,77a23.06,23.06,0,0,0,9.91-2.19h0l9.9,5.71L74,69.71Z"></path>
                    <path d="M42.39,29.5c-10.93,0-19.8,7.34-19.8,16.4A14.38,14.38,0,0,0,25.92,55l0,0-3.3,10.85,9.9-5.72h0a22.88,22.88,0,0,0,9.9,2.2c10.94,0,19.8-7.34,19.8-16.39S53.33,29.5,42.39,29.5Zm0,3.9a18.24,18.24,0,0,1,10.23,3c3.5,2.39,5.5,5.84,5.5,9.48,0,6.89-7,12.49-15.73,12.49S26.66,52.79,26.66,45.9,33.72,33.4,42.39,33.4Z"></path>
                    <ellipse cx="32.49" cy="45.9" rx="1.65" ry="1.64"></ellipse>
                    <ellipse cx="42.39" cy="45.9" rx="1.65" ry="1.64"></ellipse>
                    <ellipse cx="52.29" cy="45.9" rx="1.65" ry="1.64"></ellipse>
                    <ellipse cx="57.53" cy="60.65" rx="1.65" ry="1.64"></ellipse>
                    <ellipse cx="67.43" cy="60.65" rx="1.65" ry="1.64"></ellipse>
                </svg>
            </svg>
            <defs>
                <filter id="colors350524036">
                    <feColorMatrix type="matrix"
                                   values="0 0 0 0 0.0859375  0 0 0 0 0.5234375  0 0 0 0 0.79296875  0 0 0 1 0"
                    ></feColorMatrix>
                </filter>
                <filter id="colorsf6288523337">
                    <feColorMatrix type="matrix"
                                   values="0 0 0 0 0.99609375  0 0 0 0 0.99609375  0 0 0 0 0.99609375  0 0 0 1 0"
                    ></feColorMatrix>
                </filter>
                <filter id="colorsb1166069162">
                    <feColorMatrix type="matrix" values="0 0 0 0 0  0 0 0 0 0  0 0 0 0 0  0 0 0 1 0"
                    ></feColorMatrix>
                </filter>
            </defs>
        </g>
        <g transform="translate(69,0)">
            <g transform="matrix(1,0,0,1,0,0)"
               opacity="1">
                <g transform="scale(1)">
                    <g>
                        <path d="M29.36 0.16L29.36 0.16Q29.04-0.64 28.68-1.38 28.32-2.12 27.92-2.92L27.92-2.92Q23.24-1.52 18.58-0.4 13.92 0.72 9.08 1.52L9.08 1.52Q6.36 2 5.64-0.72L5.64-0.72 5.52-1.16Q4.92-3.36 7.24-3.6L7.24-3.6 9.52-3.76Q11.32-7.04 12.96-10.68 14.6-14.32 16.16-18.4L16.16-18.4Q17.24-21.24 20.08-20.24L20.08-20.24Q22.92-19.2 21.52-16.56L21.52-16.56Q19.76-13.32 17.86-10.26 15.96-7.2 13.8-4.2L13.8-4.2Q17.04-4.44 20.2-4.86 23.36-5.28 26.56-5.84L26.56-5.84Q26.16-6.84 25.6-7.96 25.04-9.08 24.36-10.36L24.36-10.36Q23.64-11.6 24.88-12.36L24.88-12.36Q26.08-13.16 27-12.04L27-12.04Q28.84-9.8 30.56-7.5 32.28-5.2 33.92-2.8L33.92-2.8Q35.56-0.32 33.04 1.32L33.04 1.32Q31.76 2.16 30.86 1.86 29.96 1.56 29.36 0.16ZM31.96-15.68L31.96-15.68Q29.64-18.88 27.54-22.24 25.44-25.6 23.56-29.24L23.56-29.24Q22.84-30.56 24.2-31.28L24.2-31.28Q25.44-32 26.4-30.84L26.4-30.84Q28.6-27.96 30.94-25.28 33.28-22.6 35.8-20L35.8-20Q38-17.8 35.92-15.52L35.92-15.52Q33.8-13.16 31.96-15.68ZM2.96-13.68L2.96-13.68Q2.04-14.68 2.8-15.8L2.8-15.8Q4.84-18.76 6.62-22.04 8.4-25.32 9.96-29.04L9.96-29.04Q11.12-31.8 13.92-30.68L13.92-30.68Q16.76-29.52 15.12-26.92L15.12-26.92Q12.6-23 10.06-19.7 7.52-16.4 4.84-13.64L4.84-13.64Q3.88-12.6 2.96-13.68ZM42.64-16.36L42.64-16.36Q42-17.4 43.04-18.2L43.04-18.2Q50.04-23.52 55.56-30.28L55.56-30.28Q56.68-31.64 58-32.08 59.32-32.52 61-32L61-32 62.8-31.44Q64.32-31 63.16-29.92L63.16-29.92 62.04-28.84Q65.2-27.04 68.42-25.52 71.64-24 74.96-22.64L74.96-22.64Q77.96-21.4 76.6-18.52L76.6-18.52Q75.16-15.48 72.36-17.28L72.36-17.28Q65.88-21.36 59.88-26.84L59.88-26.84Q52.72-20.56 44.4-15.84L44.4-15.84Q43.28-15.24 42.64-16.36ZM55.92 2.12L55.92 2.12Q55 1.24 55.84 0.28L55.84 0.28Q59.6-3.76 61.6-7.92L61.6-7.92Q63.84-12.64 64.08-18.16L64.08-18.16 64.12-18.84Q64.16-19.44 64.8-19.4L64.8-19.4 66.84-19.2Q68.2-19.04 68.84-18.32 69.48-17.6 69.28-16.28L69.28-16.28Q69.04-14.52 68.44-12.48L68.44-12.48Q70.24-9.76 72.06-7.38 73.88-5 75.84-2.84L75.84-2.84Q76.88-1.68 76.76-0.82 76.64 0.04 75.24 0.76L75.24 0.76Q72.4 2.2 70.88-0.52L70.88-0.52Q69-3.88 67.04-9L67.04-9Q65.84-6.48 63.56-3.72 61.28-0.96 57.84 2.12L57.84 2.12Q56.88 3.04 55.92 2.12ZM43 0.8L43 0.8Q42.04 0.04 42.84-0.96L42.84-0.96Q46.16-5.16 47.68-9.12L47.68-9.12Q48.24-10.72 48.64-12.44 49.04-14.16 49.24-16.04L49.24-16.04Q49.52-18.72 52.2-18.56L52.2-18.56 52.28-18.56Q53.6-18.48 54.24-17.76 54.88-17.04 54.68-15.76L54.68-15.76Q54.6-15.12 54.46-14.48 54.32-13.84 54.16-13.16L54.16-13.16Q56.32-10.44 58.44-8.4L58.44-8.4Q59.48-7.36 59.46-6.48 59.44-5.6 58.2-4.76L58.2-4.76Q55.68-3.04 54.4-5.68L54.4-5.68Q53.52-7.68 52.84-9.64L52.84-9.64Q51.64-7.04 49.66-4.46 47.68-1.88 44.84 0.76L44.84 0.76Q43.92 1.6 43 0.8ZM108.2 2.4L99.32 1.32Q98.08 1.16 98.08-0.12L98.08-0.12Q98.08-1.36 99.32-1.48L99.32-1.48 109-2.32 109.24-6.2 90.36-6.16Q86.96-6.16 87.68-9.48L87.68-9.48 88.4-12.8 84.48-12.8Q82.84-12.8 82.44-14.4L82.44-14.4Q82-16 83.68-16.04L83.68-16.04 115.12-17.44Q117.48-17.56 117.48-15.2L117.48-15.2Q117.48-12.8 115.12-12.8L115.12-12.8 93.6-12.8 92.44-9.52 108.76-10.6Q114.6-10.96 114.08-5.12L114.08-5.12 113.8-2.12Q113.32 3 108.2 2.4L108.2 2.4ZM108.44-19L91.52-19Q86.8-19 86.52-23.72L86.52-23.72 86.2-29.36Q86.08-31.84 88.56-31.84L88.56-31.84 90.32-31.84Q91.04-31.84 91.04-31.12L91.04-31.12 91.04-30.36 108.24-31.48Q113.84-31.84 113.56-26.2L113.56-26.2 113.44-23.72Q113.16-19 108.44-19L108.44-19ZM91.04-26.88L91.04-22.48 108.92-23.6 108.92-26.88 91.04-26.88Z"
                              transform="translate(-2.456190586090088, 32.28166580200195)"></path>
                    </g>
                    <g fill="#1686cb" transform="translate(0,37.86166763305664)">
                        <g transform="scale(0.99166)">
                            <path d="M24.36 1.26L24.36 1.26Q19.68-1.17 15.36-4.32L15.36-4.32Q10.35-0.84 3.9 1.83L3.9 1.83Q3 2.19 2.55 1.32L2.55 1.32Q2.1 0.45 2.97 0L2.97 0Q5.79-1.53 8.17-3.13 10.56-4.74 12.63-6.45L12.63-6.45Q10.89-7.92 9.27-9.48 7.65-11.04 6.09-12.75L6.09-12.75Q5.46-13.47 6.15-14.16L6.15-14.16Q6.81-14.82 7.53-14.19L7.53-14.19Q9.33-12.66 11.17-11.25 13.02-9.84 14.94-8.52L14.94-8.52Q18.24-11.73 20.61-15.36L20.61-15.36 4.05-15.36Q2.73-15.36 2.4-16.68L2.4-16.68Q2.07-18 3.45-18.06L3.45-18.06 25.92-19.23Q27.9-19.32 27.9-17.34L27.9-17.34Q27.9-15.36 25.92-15.36L25.92-15.36 21.69-15.36 23.16-14.37Q24.66-13.35 23.52-11.94L23.52-11.94Q21.03-8.88 18.21-6.51L18.21-6.51Q20.19-5.37 22.17-4.36 24.15-3.36 26.22-2.49L26.22-2.49Q28.17-1.65 27.24 0.3L27.24 0.3Q26.28 2.28 24.36 1.26ZM15-19.02L15-19.02Q13.83-19.02 12.99-19.86L12.99-19.86Q12.12-20.67 12.12-21.87L12.12-21.87Q12.12-23.04 12.99-23.91L12.99-23.91Q13.83-24.75 15-24.75L15-24.75Q16.2-24.75 17.04-23.91L17.04-23.91Q17.88-23.07 17.88-21.87L17.88-21.87Q17.88-20.67 17.04-19.86L17.04-19.86Q16.2-19.02 15-19.02ZM43.14 0.63L43.14-1.26 33.42-1.26Q32.37-1.26 32.07-2.28L32.07-2.28Q31.74-3.27 32.82-3.33L32.82-3.33 43.14-3.78 43.14-5.07 38.73-5.07Q35.19-5.07 34.98-8.61L34.98-8.61 34.77-12.6Q34.65-14.49 36.57-14.49L36.57-14.49 38.04-14.49Q38.46-14.49 38.46-14.07L38.46-14.07 38.46-13.65 51.18-14.28Q55.32-14.49 55.11-10.32L55.11-10.32 55.02-8.61Q54.81-5.07 51.27-5.07L51.27-5.07 46.83-5.07 46.74-3.96 56.61-4.41Q58.2-4.47 58.2-2.88L58.2-2.88Q58.2-1.26 56.61-1.26L56.61-1.26 46.53-1.26 46.41 0.36Q46.29 1.92 44.73 2.1L44.73 2.1Q43.14 2.22 43.14 0.63L43.14 0.63ZM56.25-15.12L33.6-15.12Q32.55-15.12 32.22-16.17L32.22-16.17Q31.89-17.22 33-17.28L33-17.28 38.97-17.52Q38.85-17.79 38.85-18.24L38.85-18.24Q38.85-19.14 39.48-19.71L39.48-19.71Q40.08-20.25 40.89-20.25L40.89-20.25Q41.79-20.25 42.36-19.68L42.36-19.68Q42.87-19.17 42.9-18.54L42.9-18.54Q42.93-18.24 42.9-17.97L42.9-17.97 42.84-17.67 47.58-17.88Q48.18-19.2 48.48-20.4L48.48-20.4 34.98-20.4Q33.93-20.4 33.63-21.42L33.63-21.42Q33.3-22.41 34.38-22.47L34.38-22.47 42.72-22.89 42.72-23.13Q42.72-24.03 43.38-24.69L43.38-24.69Q44.04-25.35 44.94-25.35L44.94-25.35Q45.84-25.35 46.5-24.69L46.5-24.69Q47.16-24.03 47.16-23.13L47.16-23.13 54.81-23.49Q56.4-23.58 56.4-21.99L56.4-21.99Q56.4-20.4 54.81-20.4L54.81-20.4 49.95-20.4 51.39-20.04Q52.71-19.74 51.69-18.84L51.69-18.84Q51.45-18.63 51.18-18.42 50.91-18.21 50.64-18L50.64-18 56.25-18.24Q57.84-18.27 57.84-16.71L57.84-16.71Q57.84-15.12 56.25-15.12L56.25-15.12ZM38.46-8.52L38.46-6.96 51.6-7.62 51.6-8.52 38.46-8.52ZM38.46-11.7L38.46-10.29 51.6-10.83 51.6-11.7 38.46-11.7ZM71.79 0.33L71.79-18.72 63.9-18.72Q62.4-18.72 62.1-20.19L62.1-20.19Q61.77-21.63 63.27-21.69L63.27-21.69 86.1-22.83Q88.2-22.95 88.2-20.85L88.2-20.85Q88.2-18.72 86.1-18.72L86.1-18.72 75.87-18.72 75.75-14.64Q78-13.86 80.08-13.08 82.17-12.3 84.15-11.49L84.15-11.49Q86.43-10.59 85.11-8.49L85.11-8.49Q83.79-6.48 81.84-7.89L81.84-7.89Q80.31-9.03 78.79-10.03 77.28-11.04 75.69-12L75.69-12 75.36-0.27Q75.33 1.5 73.56 1.8L73.56 1.8Q71.79 2.1 71.79 0.33L71.79 0.33ZM113.22 0.33L113.22 0.33Q112.23-0.72 111.36-2.16L111.36-2.16Q110.58-1.2 109.72-0.27 108.87 0.66 107.97 1.53L107.97 1.53Q107.28 2.22 106.53 1.53L106.53 1.53Q105.81 0.84 106.47 0.09L106.47 0.09Q107.28-0.9 108.18-2.13 109.08-3.36 110.07-4.89L110.07-4.89Q109.38-7.02 108.88-9.36 108.39-11.7 108.15-14.31L108.15-14.31 93.3-14.31Q92.1-14.31 91.83-15.48L91.83-15.48Q91.5-16.65 92.73-16.71L92.73-16.71 98.4-16.98 98.4-19.32 94.29-19.32Q93.15-19.32 92.88-20.43L92.88-20.43Q92.58-21.54 93.72-21.63L93.72-21.63 98.4-22.02 98.4-23.25Q98.4-24.42 99.6-24.3L99.6-24.3 101.25-24.09Q102.06-23.97 102.03-23.13L102.03-23.13 101.97-22.29 105.09-22.53Q106.77-22.71 106.77-21L106.77-21Q106.77-19.32 105.09-19.32L105.09-19.32 101.76-19.32 101.61-17.1 107.85-17.4Q107.76-18.66 107.68-20.02 107.61-21.39 107.55-22.89L107.55-22.89Q107.49-24.75 109.35-24.54L109.35-24.54Q111.21-24.33 111.21-22.47L111.21-22.47Q111.24-20.04 111.39-17.55L111.39-17.55 116.07-17.76Q117.84-17.85 117.84-16.08L117.84-16.08Q117.84-14.31 116.07-14.31L116.07-14.31 111.63-14.31Q111.78-12.99 111.96-11.7 112.14-10.41 112.38-9.09L112.38-9.09Q112.77-9.87 113.1-10.65 113.43-11.43 113.73-12.21L113.73-12.21Q114.06-13.05 114.57-13.27 115.08-13.5 115.89-13.08L115.89-13.08Q117.51-12.27 116.73-10.65L116.73-10.65Q116.01-9.21 115.24-7.86 114.48-6.51 113.61-5.25L113.61-5.25Q114-4.56 114.37-3.97 114.75-3.39 115.08-2.91L115.08-2.91 117.06-5.13Q117.48-5.64 118.02-5.19L118.02-5.19Q118.5-4.74 118.23-4.11L118.23-4.11 116.73-0.6Q116.13 0.84 115.2 1.14 114.27 1.44 113.22 0.33ZM99.66 0.66L99.66-0.72 94.26-0.15Q92.7 0.03 92.34-1.5L92.34-1.5Q91.95-3.03 93.51-3.12L93.51-3.12 99.66-3.42 99.66-4.89 96.15-4.89Q93.57-4.89 94.29-7.35L94.29-7.35 94.95-9.78 93.81-9.75Q92.64-9.72 92.43-10.86L92.43-10.86Q92.19-12 93.39-12.09L93.39-12.09 95.61-12.27 95.88-13.23Q96.15-14.22 97.14-14.04L97.14-14.04 99.03-13.8Q99.66-13.71 99.45-13.14L99.45-13.14 99.24-12.54 105.66-13.05Q107.19-13.2 107.19-11.64L107.19-11.64Q107.19-10.11 105.66-10.05L105.66-10.05 98.28-9.87 97.35-7.32 99.66-7.47 99.66-8.31Q99.66-9.12 100.5-9.12L100.5-9.12 102.33-9.12Q103.08-9.12 103.02-8.4L103.02-8.4 102.99-7.68 105.09-7.8Q106.59-7.89 106.59-6.39L106.59-6.39Q106.59-4.89 105.09-4.89L105.09-4.89 102.87-4.89 102.81-3.57 106.26-3.75Q107.37-3.78 107.37-2.7L107.37-2.7Q107.37-1.56 106.26-1.44L106.26-1.44 102.69-1.05 102.63 0.48Q102.6 1.89 101.13 1.98L101.13 1.98 101.01 1.98Q99.66 2.04 99.66 0.66L99.66 0.66ZM114.33-18.57L114.33-18.57Q113.34-18.57 112.65-19.26L112.65-19.26Q111.93-19.95 111.93-20.97L111.93-20.97Q111.93-21.96 112.65-22.68L112.65-22.68Q113.34-23.37 114.33-23.37L114.33-23.37Q115.38-23.37 116.07-22.68L116.07-22.68Q116.73-21.99 116.73-20.97L116.73-20.97Q116.73-19.92 116.07-19.26L116.07-19.26Q115.38-18.57 114.33-18.57Z"
                                  transform="translate(-2.336315870285034, 25.350000381469727)"></path>
                        </g>
                    </g>
                </g>
            </g>
            <g fill="#333333"
               transform="matrix(1,0,0,1,-29.88309097290039,73.0910873413086)" opacity="1">
                <rect width="0"></rect>
                <rect x="139.7899932861328" width="35"></rect>
                <g transform="translate(-38,0)">
                    <g transform="scale(1)">
                        <path d="M11.69-8.50L11.69-8.50L11.69-8.26Q11.42-8.16 11.14-7.84Q10.85-7.52 10.63-6.83L10.63-6.83L8.52 0.02Q8.42 0.01 8.32 0.01Q8.21 0.01 8.10 0.01L8.10 0.01Q7.99 0.01 7.88 0.01Q7.78 0.01 7.68 0.02L7.68 0.02L5.16-7.61Q5.04-7.98 4.87-8.11Q4.69-8.24 4.50-8.26L4.50-8.26L4.50-8.50Q4.84-8.48 5.30-8.47Q5.76-8.46 6.22-8.46L6.22-8.46Q6.74-8.46 7.21-8.47Q7.67-8.48 7.94-8.50L7.94-8.50L7.94-8.26Q7.58-8.24 7.37-8.17Q7.16-8.10 7.13-7.90Q7.10-7.69 7.25-7.25L7.25-7.25L8.95-2.04L8.68-1.55L10.03-5.86Q10.32-6.77 10.31-7.28Q10.30-7.80 10.03-8.02Q9.77-8.24 9.28-8.26L9.28-8.26L9.28-8.50Q9.68-8.48 10.04-8.47Q10.40-8.46 10.76-8.46L10.76-8.46Q11.04-8.46 11.27-8.47Q11.51-8.48 11.69-8.50ZM3.12-8.50L3.12-8.50L3.12-8.26Q2.88-8.22 2.78-8.08Q2.69-7.94 2.71-7.72Q2.72-7.50 2.81-7.25L2.81-7.25L4.64-1.92L4.32-1.49L5.86-5.98L6.02-5.65L4.14 0.02Q4.04 0.01 3.94 0.01Q3.83 0.01 3.72 0.01L3.72 0.01Q3.61 0.01 3.50 0.01Q3.40 0.01 3.30 0.02L3.30 0.02L0.61-7.49Q0.46-7.93 0.25-8.09Q0.04-8.24-0.14-8.26L-0.14-8.26L-0.14-8.50Q0.22-8.48 0.71-8.47Q1.20-8.46 1.64-8.46L1.64-8.46Q2.12-8.46 2.50-8.47Q2.88-8.48 3.12-8.50ZM18.44-8.50L18.44-8.50Q18.40-7.97 18.38-7.48Q18.36-6.98 18.36-6.72L18.36-6.72Q18.36-6.48 18.37-6.26Q18.38-6.05 18.40-5.90L18.40-5.90L18.12-5.90Q18-6.78 17.75-7.29Q17.50-7.80 17.09-8.01Q16.69-8.22 16.15-8.22L16.15-8.22L15.66-8.22Q15.30-8.22 15.13-8.16Q14.95-8.10 14.89-7.93Q14.83-7.75 14.83-7.37L14.83-7.37L14.83-1.13Q14.83-0.76 14.89-0.58Q14.95-0.40 15.13-0.34Q15.30-0.28 15.66-0.28L15.66-0.28L16.25-0.28Q16.79-0.28 17.20-0.51Q17.62-0.74 17.91-1.31Q18.20-1.87 18.36-2.83L18.36-2.83L18.64-2.83Q18.60-2.45 18.60-1.82L18.60-1.82Q18.60-1.55 18.61-1.04Q18.62-0.54 18.68 0L18.68 0Q18.07-0.02 17.30-0.03Q16.54-0.04 15.94-0.04L15.94-0.04Q15.53-0.04 14.86-0.04Q14.18-0.04 13.43-0.03Q12.67-0.02 12.02 0L12.02 0L12.02-0.24Q12.41-0.26 12.60-0.34Q12.79-0.41 12.86-0.62Q12.92-0.84 12.92-1.27L12.92-1.27L12.92-7.22Q12.92-7.67 12.86-7.88Q12.79-8.09 12.59-8.17Q12.40-8.24 12.02-8.26L12.02-8.26L12.02-8.50Q12.67-8.48 13.43-8.47Q14.18-8.46 14.86-8.46Q15.53-8.46 15.94-8.46L15.94-8.46Q16.49-8.46 17.19-8.47Q17.89-8.47 18.44-8.50ZM14.47-4.39L16.57-4.39Q16.57-4.39 16.57-4.27Q16.57-4.15 16.57-4.15L16.57-4.15L14.47-4.15Q14.47-4.15 14.47-4.27Q14.47-4.39 14.47-4.39L14.47-4.39ZM16.64-5.98L16.92-5.98Q16.87-5.29 16.88-4.93Q16.88-4.57 16.88-4.27L16.88-4.27Q16.88-3.97 16.90-3.61Q16.91-3.25 16.96-2.57L16.96-2.57L16.68-2.57Q16.62-2.99 16.46-3.35Q16.30-3.71 16.00-3.93Q15.70-4.15 15.22-4.15L15.22-4.15L15.22-4.39Q15.70-4.39 15.98-4.66Q16.27-4.92 16.43-5.29Q16.58-5.65 16.64-5.98L16.64-5.98ZM23.99-8.66L23.99-8.66Q24.78-8.66 25.29-8.43Q25.80-8.20 26.20-7.88L26.20-7.88Q26.44-7.70 26.56-7.84Q26.69-7.98 26.74-8.50L26.74-8.50L27.01-8.50Q26.99-8.03 26.98-7.36Q26.96-6.70 26.96-5.59L26.96-5.59L26.69-5.59Q26.63-6.14 26.53-6.53Q26.44-6.92 26.27-7.22Q26.10-7.52 25.79-7.76L25.79-7.76Q25.49-8.06 25.09-8.21Q24.70-8.35 24.26-8.35L24.26-8.35Q23.62-8.35 23.16-8.01Q22.70-7.67 22.42-7.08Q22.14-6.49 22.01-5.75Q21.88-5.02 21.88-4.22L21.88-4.22Q21.88-3.42 22.01-2.68Q22.15-1.94 22.45-1.37Q22.74-0.79 23.21-0.46Q23.68-0.12 24.31-0.12L24.31-0.12Q24.71-0.12 25.11-0.27Q25.51-0.42 25.80-0.71L25.80-0.71Q26.27-1.07 26.44-1.60Q26.60-2.14 26.69-3.02L26.69-3.02L26.96-3.02Q26.96-1.88 26.98-1.18Q26.99-0.48 27.01 0L27.01 0L26.74 0Q26.69-0.52 26.57-0.65Q26.46-0.78 26.20-0.61L26.20-0.61Q25.75-0.30 25.25-0.07Q24.76 0.17 23.98 0.17L23.98 0.17Q22.70 0.17 21.75-0.35Q20.80-0.86 20.27-1.84Q19.74-2.81 19.74-4.18L19.74-4.18Q19.74-5.52 20.29-6.53Q20.83-7.54 21.79-8.10Q22.74-8.66 23.99-8.66ZM33.18 0L33.18 0L33.18-0.24Q33.56-0.26 33.76-0.34Q33.95-0.41 34.01-0.62Q34.08-0.84 34.08-1.27L34.08-1.27L34.08-7.22Q34.08-7.67 34.01-7.88Q33.95-8.09 33.75-8.17Q33.55-8.24 33.18-8.26L33.18-8.26L33.18-8.50Q33.50-8.48 34.03-8.47Q34.55-8.46 35.06-8.46L35.06-8.46Q35.62-8.46 36.10-8.47Q36.59-8.48 36.89-8.50L36.89-8.50L36.89-8.26Q36.50-8.24 36.31-8.17Q36.11-8.09 36.05-7.88Q35.99-7.67 35.99-7.22L35.99-7.22L35.99-1.27Q35.99-0.84 36.05-0.62Q36.12-0.41 36.31-0.34Q36.50-0.26 36.89-0.24L36.89-0.24L36.89 0Q36.59-0.02 36.10-0.03Q35.62-0.04 35.06-0.04L35.06-0.04Q34.55-0.04 34.03-0.03Q33.50-0.02 33.18 0ZM28.09 0L28.09 0L28.09-0.24Q28.48-0.26 28.67-0.34Q28.86-0.41 28.93-0.62Q28.99-0.84 28.99-1.27L28.99-1.27L28.99-7.22Q28.99-7.67 28.93-7.88Q28.86-8.09 28.66-8.17Q28.46-8.24 28.09-8.26L28.09-8.26L28.09-8.50Q28.40-8.48 28.90-8.47Q29.40-8.46 29.99-8.46L29.99-8.46Q30.49-8.46 30.98-8.47Q31.48-8.48 31.80-8.50L31.80-8.50L31.80-8.26Q31.42-8.24 31.22-8.17Q31.02-8.09 30.96-7.88Q30.90-7.67 30.90-7.22L30.90-7.22L30.90-1.27Q30.90-0.84 30.97-0.62Q31.03-0.41 31.22-0.34Q31.42-0.26 31.80-0.24L31.80-0.24L31.80 0Q31.48-0.02 30.98-0.03Q30.49-0.04 29.99-0.04L29.99-0.04Q29.40-0.04 28.90-0.03Q28.40-0.02 28.09 0ZM34.86-4.15L30.12-4.15L30.12-4.39L34.86-4.39L34.86-4.15ZM41.70-8.52L41.70-8.52L44.62-1.01Q44.78-0.58 44.99-0.41Q45.20-0.25 45.37-0.24L45.37-0.24L45.37 0Q45.01-0.02 44.53-0.03Q44.04-0.04 43.55-0.04L43.55-0.04Q43.00-0.04 42.50-0.03Q42.01-0.02 41.72 0L41.72 0L41.72-0.24Q42.34-0.26 42.50-0.45Q42.66-0.64 42.42-1.25L42.42-1.25L40.38-6.83L40.60-7.14L38.77-2.39Q38.44-1.50 38.44-1.04Q38.45-0.59 38.74-0.43Q39.02-0.26 39.50-0.24L39.50-0.24L39.50 0Q39.11-0.02 38.75-0.03Q38.39-0.04 38.02-0.04L38.02-0.04Q37.75-0.04 37.52-0.03Q37.28-0.02 37.10 0L37.10 0L37.10-0.24Q37.36-0.29 37.62-0.56Q37.88-0.84 38.14-1.50L38.14-1.50L40.87-8.52Q41.06-8.51 41.29-8.51Q41.51-8.51 41.70-8.52ZM39.08-3.46L42.54-3.46L42.54-3.22L38.96-3.22L39.08-3.46ZM52.18-8.50L52.18-8.50Q52.13-7.88 52.11-7.32Q52.09-6.76 52.09-6.46L52.09-6.46Q52.09-6.19 52.10-5.95Q52.12-5.71 52.13-5.54L52.13-5.54L51.85-5.54Q51.66-6.55 51.37-7.14Q51.07-7.73 50.66-7.97Q50.26-8.22 49.70-8.22L49.70-8.22L49.43-8.22L49.43-1.37Q49.43-0.89 49.53-0.65Q49.63-0.41 49.91-0.33Q50.18-0.25 50.71-0.24L50.71-0.24L50.71 0Q50.34-0.01 49.72-0.02Q49.10-0.04 48.43-0.04L48.43-0.04Q47.77-0.04 47.18-0.02Q46.60-0.01 46.24 0L46.24 0L46.24-0.24Q46.78-0.25 47.05-0.33Q47.33-0.41 47.42-0.65Q47.52-0.89 47.52-1.37L47.52-1.37L47.52-8.22L47.26-8.22Q46.70-8.22 46.30-7.97Q45.89-7.73 45.60-7.15Q45.31-6.56 45.10-5.54L45.10-5.54L44.82-5.54Q44.84-5.71 44.85-5.95Q44.86-6.19 44.86-6.46L44.86-6.46Q44.86-6.76 44.84-7.32Q44.82-7.88 44.77-8.50L44.77-8.50Q45.32-8.48 45.98-8.47Q46.63-8.46 47.29-8.46Q47.95-8.46 48.48-8.46L48.48-8.46Q49.02-8.46 49.67-8.46Q50.33-8.46 50.99-8.47Q51.65-8.48 52.18-8.50ZM58.96-8.52L58.96-8.52L61.87-1.01Q62.04-0.58 62.25-0.41Q62.46-0.25 62.63-0.24L62.63-0.24L62.63 0Q62.27-0.02 61.78-0.03Q61.30-0.04 60.80-0.04L60.80-0.04Q60.25-0.04 59.76-0.03Q59.27-0.02 58.98 0L58.98 0L58.98-0.24Q59.59-0.26 59.75-0.45Q59.92-0.64 59.68-1.25L59.68-1.25L57.64-6.83L57.85-7.14L56.03-2.39Q55.69-1.50 55.70-1.04Q55.70-0.59 55.99-0.43Q56.28-0.26 56.76-0.24L56.76-0.24L56.76 0Q56.36-0.02 56.00-0.03Q55.64-0.04 55.27-0.04L55.27-0.04Q55.01-0.04 54.77-0.03Q54.54-0.02 54.36 0L54.36 0L54.36-0.24Q54.61-0.29 54.88-0.56Q55.14-0.84 55.39-1.50L55.39-1.50L58.13-8.52Q58.32-8.51 58.54-8.51Q58.76-8.51 58.96-8.52ZM56.34-3.46L59.80-3.46L59.80-3.22L56.22-3.22L56.34-3.46ZM62.71-8.26L62.71-8.50Q63.01-8.48 63.52-8.47Q64.03-8.46 64.54-8.46L64.54-8.46Q65.11-8.46 65.65-8.47Q66.19-8.48 66.42-8.48L66.42-8.48Q68.09-8.48 68.92-7.94Q69.74-7.39 69.74-6.40L69.74-6.40Q69.74-5.99 69.58-5.57Q69.41-5.16 69.01-4.81Q68.60-4.45 67.91-4.24Q67.21-4.03 66.16-4.03L66.16-4.03L65.00-4.03L65.00-4.27L66.04-4.27Q66.74-4.27 67.11-4.54Q67.48-4.81 67.61-5.26Q67.75-5.71 67.75-6.26L67.75-6.26Q67.75-7.21 67.42-7.73Q67.08-8.26 66.26-8.26L66.26-8.26Q65.80-8.26 65.66-8.05Q65.52-7.85 65.52-7.22L65.52-7.22L65.52-1.27Q65.52-0.84 65.59-0.62Q65.65-0.41 65.84-0.34Q66.04-0.26 66.42-0.24L66.42-0.24L66.42 0Q66.10-0.02 65.60-0.03Q65.11-0.04 64.61-0.04L64.61-0.04Q64.03-0.04 63.52-0.03Q63.01-0.02 62.71 0L62.71 0L62.71-0.24Q63.10-0.26 63.29-0.34Q63.48-0.41 63.55-0.62Q63.61-0.84 63.61-1.27L63.61-1.27L63.61-7.22Q63.61-7.67 63.55-7.88Q63.48-8.09 63.28-8.17Q63.08-8.24 62.71-8.26L62.71-8.26ZM65.00-4.03L64.98-4.24Q65.50-4.22 65.87-4.19Q66.25-4.15 66.54-4.12Q66.83-4.09 67.06-4.08L67.06-4.08Q68.15-3.98 68.67-3.61Q69.19-3.24 69.35-2.50L69.35-2.50L69.62-1.26Q69.73-0.78 69.85-0.59Q69.97-0.40 70.20-0.40L70.20-0.40Q70.36-0.41 70.46-0.47Q70.56-0.54 70.68-0.67L70.68-0.67L70.85-0.53Q70.52-0.16 70.15 0.01Q69.78 0.17 69.25 0.17L69.25 0.17Q68.60 0.17 68.18-0.11Q67.76-0.38 67.63-1.13L67.63-1.13L67.42-2.33Q67.33-2.83 67.21-3.21Q67.09-3.59 66.88-3.81Q66.67-4.03 66.30-4.03L66.30-4.03L65.00-4.03ZM78.28-8.50L78.28-8.50Q78.23-7.88 78.21-7.32Q78.19-6.76 78.19-6.46L78.19-6.46Q78.19-6.19 78.20-5.95Q78.22-5.71 78.23-5.54L78.23-5.54L77.95-5.54Q77.76-6.55 77.47-7.14Q77.17-7.73 76.76-7.97Q76.36-8.22 75.80-8.22L75.80-8.22L75.53-8.22L75.53-1.37Q75.53-0.89 75.63-0.65Q75.73-0.41 76.01-0.33Q76.28-0.25 76.81-0.24L76.81-0.24L76.81 0Q76.44-0.01 75.82-0.02Q75.20-0.04 74.53-0.04L74.53-0.04Q73.87-0.04 73.28-0.02Q72.70-0.01 72.34 0L72.34 0L72.34-0.24Q72.88-0.25 73.15-0.33Q73.43-0.41 73.52-0.65Q73.62-0.89 73.62-1.37L73.62-1.37L73.62-8.22L73.36-8.22Q72.80-8.22 72.40-7.97Q71.99-7.73 71.70-7.15Q71.41-6.56 71.20-5.54L71.20-5.54L70.92-5.54Q70.94-5.71 70.95-5.95Q70.96-6.19 70.96-6.46L70.96-6.46Q70.96-6.76 70.94-7.32Q70.92-7.88 70.87-8.50L70.87-8.50Q71.42-8.48 72.08-8.47Q72.73-8.46 73.39-8.46Q74.05-8.46 74.58-8.46L74.58-8.46Q75.12-8.46 75.77-8.46Q76.43-8.46 77.09-8.47Q77.75-8.48 78.28-8.50ZM82.70-8.50L82.70-8.50L82.70-8.26Q82.32-8.24 82.12-8.17Q81.92-8.09 81.86-7.88Q81.80-7.67 81.80-7.22L81.80-7.22L81.80-1.27Q81.80-0.84 81.87-0.62Q81.94-0.41 82.13-0.34Q82.32-0.26 82.70-0.24L82.70-0.24L82.70 0Q82.38-0.02 81.89-0.03Q81.40-0.04 80.89-0.04L80.89-0.04Q80.30-0.04 79.81-0.03Q79.31-0.02 79.00 0L79.00 0L79.00-0.24Q79.38-0.26 79.57-0.34Q79.76-0.41 79.83-0.62Q79.90-0.84 79.90-1.27L79.90-1.27L79.90-7.22Q79.90-7.67 79.83-7.88Q79.76-8.09 79.57-8.17Q79.37-8.24 79.00-8.26L79.00-8.26L79.00-8.50Q79.31-8.48 79.81-8.47Q80.30-8.46 80.89-8.46L80.89-8.46Q81.40-8.46 81.89-8.47Q82.38-8.48 82.70-8.50ZM87.77-8.66L87.77-8.66Q88.56-8.66 89.07-8.43Q89.58-8.20 89.98-7.88L89.98-7.88Q90.22-7.70 90.34-7.84Q90.47-7.98 90.52-8.50L90.52-8.50L90.79-8.50Q90.77-8.03 90.76-7.36Q90.74-6.70 90.74-5.59L90.74-5.59L90.47-5.59Q90.41-6.14 90.31-6.53Q90.22-6.92 90.05-7.22Q89.88-7.52 89.57-7.76L89.57-7.76Q89.27-8.06 88.87-8.21Q88.48-8.35 88.04-8.35L88.04-8.35Q87.40-8.35 86.94-8.01Q86.48-7.67 86.20-7.08Q85.92-6.49 85.79-5.75Q85.66-5.02 85.66-4.22L85.66-4.22Q85.66-3.42 85.79-2.68Q85.93-1.94 86.23-1.37Q86.52-0.79 86.99-0.46Q87.46-0.12 88.09-0.12L88.09-0.12Q88.49-0.12 88.89-0.27Q89.29-0.42 89.58-0.71L89.58-0.71Q90.05-1.07 90.22-1.60Q90.38-2.14 90.47-3.02L90.47-3.02L90.74-3.02Q90.74-1.88 90.76-1.18Q90.77-0.48 90.79 0L90.79 0L90.52 0Q90.47-0.52 90.35-0.65Q90.24-0.78 89.98-0.61L89.98-0.61Q89.53-0.30 89.03-0.07Q88.54 0.17 87.76 0.17L87.76 0.17Q86.48 0.17 85.53-0.35Q84.58-0.86 84.05-1.84Q83.52-2.81 83.52-4.18L83.52-4.18Q83.52-5.52 84.07-6.53Q84.61-7.54 85.57-8.10Q86.52-8.66 87.77-8.66ZM95.65-8.50L95.65-8.50L95.65-8.26Q95.24-8.24 95.03-8.17Q94.82-8.09 94.75-7.88Q94.68-7.67 94.68-7.22L94.68-7.22L94.68-1.13Q94.68-0.76 94.73-0.58Q94.79-0.40 94.95-0.34Q95.11-0.28 95.44-0.28L95.44-0.28L96.02-0.28Q96.58-0.28 97.03-0.61Q97.48-0.95 97.78-1.55Q98.09-2.16 98.21-2.95L98.21-2.95L98.48-2.95Q98.45-2.54 98.45-1.90L98.45-1.90Q98.45-1.62 98.46-1.09Q98.47-0.56 98.53 0L98.53 0Q97.92-0.02 97.15-0.03Q96.38-0.04 95.78-0.04L95.78-0.04Q95.38-0.04 94.70-0.04Q94.03-0.04 93.28-0.03Q92.52-0.02 91.87 0L91.87 0L91.87-0.24Q92.26-0.26 92.45-0.34Q92.64-0.41 92.71-0.62Q92.77-0.84 92.77-1.27L92.77-1.27L92.77-7.22Q92.77-7.67 92.71-7.88Q92.64-8.09 92.44-8.17Q92.24-8.24 91.87-8.26L91.87-8.26L91.87-8.50Q92.17-8.48 92.68-8.47Q93.19-8.46 93.77-8.46L93.77-8.46Q94.30-8.46 94.81-8.47Q95.32-8.48 95.65-8.50ZM105.62-8.50L105.62-8.50Q105.58-7.97 105.56-7.48Q105.54-6.98 105.54-6.72L105.54-6.72Q105.54-6.48 105.55-6.26Q105.56-6.05 105.58-5.90L105.58-5.90L105.30-5.90Q105.18-6.78 104.93-7.29Q104.68-7.80 104.27-8.01Q103.87-8.22 103.33-8.22L103.33-8.22L102.84-8.22Q102.48-8.22 102.31-8.16Q102.13-8.10 102.07-7.93Q102.01-7.75 102.01-7.37L102.01-7.37L102.01-1.13Q102.01-0.76 102.07-0.58Q102.13-0.40 102.31-0.34Q102.48-0.28 102.84-0.28L102.84-0.28L103.43-0.28Q103.97-0.28 104.38-0.51Q104.80-0.74 105.09-1.31Q105.38-1.87 105.54-2.83L105.54-2.83L105.82-2.83Q105.78-2.45 105.78-1.82L105.78-1.82Q105.78-1.55 105.79-1.04Q105.80-0.54 105.86 0L105.86 0Q105.25-0.02 104.48-0.03Q103.72-0.04 103.12-0.04L103.12-0.04Q102.71-0.04 102.04-0.04Q101.36-0.04 100.61-0.03Q99.85-0.02 99.20 0L99.20 0L99.20-0.24Q99.59-0.26 99.78-0.34Q99.97-0.41 100.04-0.62Q100.10-0.84 100.10-1.27L100.10-1.27L100.10-7.22Q100.10-7.67 100.04-7.88Q99.97-8.09 99.77-8.17Q99.58-8.24 99.20-8.26L99.20-8.26L99.20-8.50Q99.85-8.48 100.61-8.47Q101.36-8.46 102.04-8.46Q102.71-8.46 103.12-8.46L103.12-8.46Q103.67-8.46 104.37-8.47Q105.07-8.47 105.62-8.50ZM101.65-4.39L103.75-4.39Q103.75-4.39 103.75-4.27Q103.75-4.15 103.75-4.15L103.75-4.15L101.65-4.15Q101.65-4.15 101.65-4.27Q101.65-4.39 101.65-4.39L101.65-4.39ZM103.82-5.98L104.10-5.98Q104.05-5.29 104.06-4.93Q104.06-4.57 104.06-4.27L104.06-4.27Q104.06-3.97 104.08-3.61Q104.09-3.25 104.14-2.57L104.14-2.57L103.86-2.57Q103.80-2.99 103.64-3.35Q103.48-3.71 103.18-3.93Q102.88-4.15 102.40-4.15L102.40-4.15L102.40-4.39Q102.88-4.39 103.16-4.66Q103.45-4.92 103.61-5.29Q103.76-5.65 103.82-5.98L103.82-5.98ZM116.03-8.50L116.03-8.50Q115.98-7.97 115.96-7.48Q115.94-6.98 115.94-6.72L115.94-6.72Q115.94-6.48 115.96-6.26Q115.97-6.05 115.98-5.90L115.98-5.90L115.70-5.90Q115.58-6.78 115.33-7.29Q115.08-7.80 114.68-8.01Q114.28-8.22 113.74-8.22L113.74-8.22L113.24-8.22Q112.88-8.22 112.71-8.16Q112.54-8.10 112.48-7.93Q112.42-7.75 112.42-7.37L112.42-7.37L112.42-1.13Q112.42-0.76 112.48-0.58Q112.54-0.40 112.71-0.34Q112.88-0.28 113.24-0.28L113.24-0.28L113.83-0.28Q114.37-0.28 114.79-0.51Q115.20-0.74 115.49-1.31Q115.79-1.87 115.94-2.83L115.94-2.83L116.22-2.83Q116.18-2.45 116.18-1.82L116.18-1.82Q116.18-1.55 116.20-1.04Q116.21-0.54 116.27 0L116.27 0Q115.66-0.02 114.89-0.03Q114.12-0.04 113.52-0.04L113.52-0.04Q113.11-0.04 112.44-0.04Q111.77-0.04 111.01-0.03Q110.26-0.02 109.61 0L109.61 0L109.61-0.24Q109.99-0.26 110.18-0.34Q110.38-0.41 110.44-0.62Q110.51-0.84 110.51-1.27L110.51-1.27L110.51-7.22Q110.51-7.67 110.44-7.88Q110.38-8.09 110.18-8.17Q109.98-8.24 109.61-8.26L109.61-8.26L109.61-8.50Q110.26-8.48 111.01-8.47Q111.77-8.46 112.44-8.46Q113.11-8.46 113.52-8.46L113.52-8.46Q114.07-8.46 114.77-8.47Q115.48-8.47 116.03-8.50ZM112.06-4.39L114.16-4.39Q114.16-4.39 114.16-4.27Q114.16-4.15 114.16-4.15L114.16-4.15L112.06-4.15Q112.06-4.15 112.06-4.27Q112.06-4.39 112.06-4.39L112.06-4.39ZM114.23-5.98L114.50-5.98Q114.46-5.29 114.46-4.93Q114.47-4.57 114.47-4.27L114.47-4.27Q114.47-3.97 114.48-3.61Q114.49-3.25 114.54-2.57L114.54-2.57L114.26-2.57Q114.20-2.99 114.04-3.35Q113.88-3.71 113.58-3.93Q113.28-4.15 112.80-4.15L112.80-4.15L112.80-4.39Q113.28-4.39 113.57-4.66Q113.86-4.92 114.01-5.29Q114.17-5.65 114.23-5.98L114.23-5.98ZM120.40-8.51L120.40-8.51L120.40-8.26Q119.86-8.26 119.71-8.15Q119.56-8.05 119.72-7.80L119.72-7.80L124.48-0.85Q124.72-0.52 124.86-0.40Q125.00-0.28 125.24-0.25L125.24-0.25L125.24 0Q125.00-0.01 124.55-0.03Q124.09-0.05 123.60-0.05L123.60-0.05Q123.06-0.05 122.50-0.03Q121.94-0.01 121.67 0L121.67 0L121.67-0.25Q122.22-0.25 122.38-0.33Q122.54-0.41 122.38-0.66L122.38-0.66L117.61-7.66Q117.38-8.00 117.24-8.12Q117.10-8.24 116.84-8.26L116.84-8.26L116.84-8.51Q117.10-8.50 117.58-8.48Q118.07-8.46 118.56-8.46L118.56-8.46Q119.10-8.46 119.60-8.48Q120.10-8.50 120.40-8.51ZM118.61-1.70L120.50-4.27Q120.50-4.27 120.55-4.12Q120.60-3.96 120.60-3.96L120.60-3.96L119.40-2.32Q118.92-1.67 118.86-1.22Q118.80-0.77 119.07-0.52Q119.34-0.28 119.87-0.24L119.87-0.24L119.87 0Q119.64-0.01 119.27-0.02Q118.90-0.02 118.54-0.03Q118.18-0.04 117.97-0.04L117.97-0.04Q117.25-0.04 116.87 0L116.87 0L116.87-0.24Q117.29-0.38 117.72-0.75Q118.15-1.12 118.61-1.70L118.61-1.70ZM124.70-8.50L124.70-8.50L124.70-8.26Q124.31-8.15 123.92-7.80Q123.53-7.45 123.19-7.00L123.19-7.00L121.25-4.40Q121.25-4.40 121.21-4.56Q121.16-4.72 121.16-4.72L121.16-4.72L122.40-6.38Q123.08-7.26 122.95-7.74Q122.82-8.22 122.09-8.26L122.09-8.26L122.09-8.50Q122.44-8.48 122.87-8.47Q123.30-8.46 123.60-8.46L123.60-8.46Q124.32-8.46 124.70-8.50ZM125.51-8.26L125.51-8.50Q125.81-8.48 126.32-8.47Q126.83-8.46 127.33-8.46L127.33-8.46Q127.91-8.46 128.45-8.47Q128.99-8.48 129.22-8.48L129.22-8.48Q130.88-8.48 131.71-7.82Q132.54-7.16 132.54-6.12L132.54-6.12Q132.54-5.69 132.37-5.21Q132.20-4.74 131.80-4.34Q131.40-3.94 130.70-3.68Q130.01-3.43 128.95-3.43L128.95-3.43L127.73-3.43L127.73-3.67L128.83-3.67Q129.54-3.67 129.91-4.00Q130.27-4.32 130.41-4.85Q130.55-5.38 130.55-5.99L130.55-5.99Q130.55-7.13 130.21-7.69Q129.88-8.26 129.06-8.26L129.06-8.26Q128.59-8.26 128.45-8.05Q128.32-7.85 128.32-7.22L128.32-7.22L128.32-1.34Q128.32-0.88 128.41-0.65Q128.51-0.42 128.78-0.35Q129.06-0.28 129.60-0.26L129.60-0.26L129.60 0Q129.23-0.01 128.64-0.02Q128.05-0.04 127.40-0.04L127.40-0.04Q126.89-0.04 126.40-0.02Q125.90-0.01 125.51 0L125.51 0L125.51-0.24Q125.89-0.26 126.08-0.34Q126.28-0.41 126.34-0.62Q126.41-0.84 126.41-1.27L126.41-1.27L126.41-7.22Q126.41-7.67 126.34-7.88Q126.28-8.09 126.08-8.17Q125.88-8.24 125.51-8.26L125.51-8.26ZM137.56-8.66L137.56-8.66Q138.83-8.66 139.78-8.15Q140.74-7.63 141.26-6.67Q141.79-5.70 141.79-4.32L141.79-4.32Q141.79-2.98 141.25-1.97Q140.71-0.96 139.75-0.40Q138.78 0.17 137.54 0.17L137.54 0.17Q136.27 0.17 135.32-0.35Q134.36-0.86 133.84-1.84Q133.31-2.81 133.31-4.18L133.31-4.18Q133.31-5.52 133.85-6.53Q134.40-7.54 135.35-8.10Q136.31-8.66 137.56-8.66ZM137.51-8.45L137.51-8.45Q136.84-8.45 136.34-7.91Q135.84-7.37 135.57-6.42Q135.30-5.47 135.30-4.22L135.30-4.22Q135.30-2.95 135.61-2.01Q135.91-1.07 136.43-0.56Q136.96-0.05 137.59-0.05L137.59-0.05Q138.26-0.05 138.76-0.59Q139.26-1.13 139.53-2.08Q139.80-3.04 139.80-4.27L139.80-4.27Q139.80-5.56 139.49-6.49Q139.19-7.43 138.67-7.94Q138.14-8.45 137.51-8.45ZM142.62-8.26L142.62-8.50Q142.92-8.48 143.43-8.47Q143.94-8.46 144.44-8.46L144.44-8.46Q145.02-8.46 145.56-8.47Q146.10-8.48 146.33-8.48L146.33-8.48Q148.00-8.48 148.82-7.94Q149.65-7.39 149.65-6.40L149.65-6.40Q149.65-5.99 149.48-5.57Q149.32-5.16 148.91-4.81Q148.51-4.45 147.82-4.24Q147.12-4.03 146.06-4.03L146.06-4.03L144.91-4.03L144.91-4.27L145.94-4.27Q146.65-4.27 147.02-4.54Q147.38-4.81 147.52-5.26Q147.66-5.71 147.66-6.26L147.66-6.26Q147.66-7.21 147.32-7.73Q146.99-8.26 146.17-8.26L146.17-8.26Q145.70-8.26 145.57-8.05Q145.43-7.85 145.43-7.22L145.43-7.22L145.43-1.27Q145.43-0.84 145.49-0.62Q145.56-0.41 145.75-0.34Q145.94-0.26 146.33-0.24L146.33-0.24L146.33 0Q146.00-0.02 145.51-0.03Q145.02-0.04 144.52-0.04L144.52-0.04Q143.94-0.04 143.43-0.03Q142.92-0.02 142.62 0L142.62 0L142.62-0.24Q143.00-0.26 143.20-0.34Q143.39-0.41 143.45-0.62Q143.52-0.84 143.52-1.27L143.52-1.27L143.52-7.22Q143.52-7.67 143.45-7.88Q143.39-8.09 143.19-8.17Q142.99-8.24 142.62-8.26L142.62-8.26ZM144.91-4.03L144.89-4.24Q145.40-4.22 145.78-4.19Q146.16-4.15 146.45-4.12Q146.74-4.09 146.96-4.08L146.96-4.08Q148.06-3.98 148.58-3.61Q149.10-3.24 149.26-2.50L149.26-2.50L149.53-1.26Q149.64-0.78 149.76-0.59Q149.88-0.40 150.11-0.40L150.11-0.40Q150.26-0.41 150.37-0.47Q150.47-0.54 150.59-0.67L150.59-0.67L150.76-0.53Q150.43-0.16 150.06 0.01Q149.69 0.17 149.16 0.17L149.16 0.17Q148.51 0.17 148.09-0.11Q147.67-0.38 147.54-1.13L147.54-1.13L147.32-2.33Q147.24-2.83 147.12-3.21Q147.00-3.59 146.79-3.81Q146.58-4.03 146.21-4.03L146.21-4.03L144.91-4.03ZM158.18-8.50L158.18-8.50Q158.14-7.88 158.12-7.32Q158.10-6.76 158.10-6.46L158.10-6.46Q158.10-6.19 158.11-5.95Q158.12-5.71 158.14-5.54L158.14-5.54L157.86-5.54Q157.67-6.55 157.37-7.14Q157.08-7.73 156.67-7.97Q156.26-8.22 155.71-8.22L155.71-8.22L155.44-8.22L155.44-1.37Q155.44-0.89 155.54-0.65Q155.64-0.41 155.92-0.33Q156.19-0.25 156.72-0.24L156.72-0.24L156.72 0Q156.35-0.01 155.73-0.02Q155.11-0.04 154.44-0.04L154.44-0.04Q153.78-0.04 153.19-0.02Q152.60-0.01 152.24 0L152.24 0L152.24-0.24Q152.78-0.25 153.06-0.33Q153.34-0.41 153.43-0.65Q153.53-0.89 153.53-1.37L153.53-1.37L153.53-8.22L153.26-8.22Q152.71-8.22 152.30-7.97Q151.90-7.73 151.61-7.15Q151.32-6.56 151.10-5.54L151.10-5.54L150.83-5.54Q150.85-5.71 150.86-5.95Q150.86-6.19 150.86-6.46L150.86-6.46Q150.86-6.76 150.85-7.32Q150.83-7.88 150.78-8.50L150.78-8.50Q151.33-8.48 151.99-8.47Q152.64-8.46 153.30-8.46Q153.96-8.46 154.49-8.46L154.49-8.46Q155.03-8.46 155.68-8.46Q156.34-8.46 157.00-8.47Q157.66-8.48 158.18-8.50ZM165.32-8.50L165.32-8.50Q165.28-7.97 165.26-7.48Q165.24-6.98 165.24-6.72L165.24-6.72Q165.24-6.48 165.25-6.26Q165.26-6.05 165.28-5.90L165.28-5.90L165.00-5.90Q164.88-6.78 164.63-7.29Q164.38-7.80 163.97-8.01Q163.57-8.22 163.03-8.22L163.03-8.22L162.54-8.22Q162.18-8.22 162.01-8.16Q161.83-8.10 161.77-7.93Q161.71-7.75 161.71-7.37L161.71-7.37L161.71-1.13Q161.71-0.76 161.77-0.58Q161.83-0.40 162.01-0.34Q162.18-0.28 162.54-0.28L162.54-0.28L163.13-0.28Q163.67-0.28 164.08-0.51Q164.50-0.74 164.79-1.31Q165.08-1.87 165.24-2.83L165.24-2.83L165.52-2.83Q165.48-2.45 165.48-1.82L165.48-1.82Q165.48-1.55 165.49-1.04Q165.50-0.54 165.56 0L165.56 0Q164.95-0.02 164.18-0.03Q163.42-0.04 162.82-0.04L162.82-0.04Q162.41-0.04 161.74-0.04Q161.06-0.04 160.31-0.03Q159.55-0.02 158.90 0L158.90 0L158.90-0.24Q159.29-0.26 159.48-0.34Q159.67-0.41 159.74-0.62Q159.80-0.84 159.80-1.27L159.80-1.27L159.80-7.22Q159.80-7.67 159.74-7.88Q159.67-8.09 159.47-8.17Q159.28-8.24 158.90-8.26L158.90-8.26L158.90-8.50Q159.55-8.48 160.31-8.47Q161.06-8.46 161.74-8.46Q162.41-8.46 162.82-8.46L162.82-8.46Q163.37-8.46 164.07-8.47Q164.77-8.47 165.32-8.50ZM161.35-4.39L163.45-4.39Q163.45-4.39 163.45-4.27Q163.45-4.15 163.45-4.15L163.45-4.15L161.35-4.15Q161.35-4.15 161.35-4.27Q161.35-4.39 161.35-4.39L161.35-4.39ZM163.52-5.98L163.80-5.98Q163.75-5.29 163.76-4.93Q163.76-4.57 163.76-4.27L163.76-4.27Q163.76-3.97 163.78-3.61Q163.79-3.25 163.84-2.57L163.84-2.57L163.56-2.57Q163.50-2.99 163.34-3.35Q163.18-3.71 162.88-3.93Q162.58-4.15 162.10-4.15L162.10-4.15L162.10-4.39Q162.58-4.39 162.86-4.66Q163.15-4.92 163.31-5.29Q163.46-5.65 163.52-5.98L163.52-5.98ZM166.51-8.26L166.51-8.50Q166.81-8.48 167.32-8.47Q167.83-8.46 168.34-8.46L168.34-8.46Q168.91-8.46 169.45-8.47Q169.99-8.48 170.22-8.48L170.22-8.48Q171.89-8.48 172.72-7.94Q173.54-7.39 173.54-6.40L173.54-6.40Q173.54-5.99 173.38-5.57Q173.21-5.16 172.81-4.81Q172.40-4.45 171.71-4.24Q171.01-4.03 169.96-4.03L169.96-4.03L168.80-4.03L168.80-4.27L169.84-4.27Q170.54-4.27 170.91-4.54Q171.28-4.81 171.41-5.26Q171.55-5.71 171.55-6.26L171.55-6.26Q171.55-7.21 171.22-7.73Q170.88-8.26 170.06-8.26L170.06-8.26Q169.60-8.26 169.46-8.05Q169.32-7.85 169.32-7.22L169.32-7.22L169.32-1.27Q169.32-0.84 169.39-0.62Q169.45-0.41 169.64-0.34Q169.84-0.26 170.22-0.24L170.22-0.24L170.22 0Q169.90-0.02 169.40-0.03Q168.91-0.04 168.41-0.04L168.41-0.04Q167.83-0.04 167.32-0.03Q166.81-0.02 166.51 0L166.51 0L166.51-0.24Q166.90-0.26 167.09-0.34Q167.28-0.41 167.35-0.62Q167.41-0.84 167.41-1.27L167.41-1.27L167.41-7.22Q167.41-7.67 167.35-7.88Q167.28-8.09 167.08-8.17Q166.88-8.24 166.51-8.26L166.51-8.26ZM168.80-4.03L168.78-4.24Q169.30-4.22 169.67-4.19Q170.05-4.15 170.34-4.12Q170.63-4.09 170.86-4.08L170.86-4.08Q171.95-3.98 172.47-3.61Q172.99-3.24 173.15-2.50L173.15-2.50L173.42-1.26Q173.53-0.78 173.65-0.59Q173.77-0.40 174.00-0.40L174.00-0.40Q174.16-0.41 174.26-0.47Q174.36-0.54 174.48-0.67L174.48-0.67L174.65-0.53Q174.32-0.16 173.95 0.01Q173.58 0.17 173.05 0.17L173.05 0.17Q172.40 0.17 171.98-0.11Q171.56-0.38 171.43-1.13L171.43-1.13L171.22-2.33Q171.13-2.83 171.01-3.21Q170.89-3.59 170.68-3.81Q170.47-4.03 170.10-4.03L170.10-4.03L168.80-4.03Z"
                              transform="translate(0.14400000000000002, 8.664)"></path>
                    </g>
                </g>
            </g>
        </g>
    </g>
</svg>
